<svg width="512" height="512" viewBox="0 0 512 512" fill="none" xmlns="http://www.w3.org/2000/svg">
<path fill-rule="evenodd" clip-rule="evenodd" d="M199.16 31.5314C171.437 35.0201 143.793 48.3792 125.743 67.0085C120.444 72.4779 119.043 76.6536 121.033 81.0479C121.667 82.4488 131.298 94.0458 142.436 106.819C153.574 119.593 162.687 130.389 162.687 130.811C162.687 131.8 131.719 162.74 130.729 162.74C130.046 162.74 120.603 154.653 93.7882 131.111C78.1501 117.38 75.5906 117.074 65.1227 127.681C53.3904 139.568 41.8676 158.91 36.6797 175.423C32.3149 189.317 30.9779 198.386 31.0003 213.935C31.0412 241.348 37.8557 264.068 52.9658 287.165C59.1993 296.693 70.9353 310.429 74.3523 312.196C77.7935 313.975 82.6248 313.887 85.3248 311.997C88.1916 309.989 309.973 88.2673 311.981 85.4013C313.873 82.6992 313.962 77.8701 312.182 74.4289C310.415 71.0119 296.675 59.279 287.144 53.0481C270.636 42.2553 254.481 35.8858 234.844 32.4259C226.854 31.0185 207.16 30.5243 199.16 31.5314ZM278.138 156.32C274.296 157.82 157.259 275.33 156.093 278.859C154.511 283.649 156.336 287.329 163.875 294.55C167.574 298.093 171.265 301.505 172.078 302.13C173.799 303.457 166.661 306.684 293.966 247.009C302.928 242.809 318.639 235.473 328.881 230.707C339.122 225.941 347.661 221.909 347.855 221.747C348.151 221.498 332.693 204.656 306.511 176.702C303.395 173.374 298.145 167.768 294.845 164.244C289.327 158.351 284.66 155.204 281.659 155.352C281.003 155.385 279.418 155.82 278.138 156.32ZM359.606 241.323C354.736 243.561 318.062 260.747 294.897 271.647C276.204 280.442 225.811 303.993 207.843 312.33C199.65 316.132 192.656 319.529 192.302 319.878C191.464 320.703 233.862 360.072 235.589 360.072C236.776 360.072 244.309 356.622 288.38 335.894C295.805 332.402 311.726 324.944 323.76 319.32C335.794 313.696 349.83 307.109 354.95 304.683C360.071 302.257 369.498 297.863 375.899 294.919C382.3 291.975 391.22 287.801 395.721 285.645L403.904 281.725L400.45 277.849C395.426 272.213 375.352 250.649 369.382 244.477L364.261 239.183L359.606 241.323ZM351.692 331.255C259.951 374.236 253.93 377.1 253.93 377.765C253.93 378.447 295.509 417.189 296.669 417.589C297.103 417.738 310.602 411.721 326.67 404.216C357.302 389.909 359.31 388.97 384.744 377.041C393.45 372.958 406.648 366.791 414.073 363.336C421.498 359.88 432.81 354.56 439.211 351.514C445.612 348.467 452.855 345.11 455.307 344.051C457.758 342.994 459.644 341.797 459.496 341.392C459.349 340.987 457.134 338.427 454.574 335.704C439.629 319.805 426.057 305.227 423.754 302.595C422.298 300.93 420.676 299.584 420.15 299.6C419.624 299.617 388.818 313.862 351.692 331.255ZM441.029 375.783C403.316 393.478 395.67 397.055 374.968 406.69C331.823 426.773 315.896 434.424 315.758 435.135C315.672 435.575 319.019 439.075 323.195 442.915C327.37 446.755 336.223 454.965 342.868 461.162C364.578 481.402 366.019 482.332 372.414 480.222C374.546 479.519 391.07 463.577 427.727 426.859C483.54 370.955 482.488 372.189 480.216 365.307C477.858 358.164 479.534 357.717 441.029 375.783Z" fill="#F8D00F"/>
</svg>
